<svg width="430" height="586" viewBox="0 0 430 586" fill="none" xmlns="http://www.w3.org/2000/svg">
<line x1="16.5" y1="-25" x2="16.5" y2="730" stroke="#7733FF" stroke-opacity="0.09"/>
<line x1="32.5" y1="-25" x2="32.5" y2="730" stroke="#7733FF" stroke-opacity="0.09"/>
<line x1="48.5" y1="-25" x2="48.5" y2="730" stroke="#7733FF" stroke-opacity="0.09"/>
<line x1="64.5" y1="-25" x2="64.5" y2="730" stroke="#7733FF" stroke-opacity="0.09"/>
<line x1="80.5" y1="-25" x2="80.5" y2="730" stroke="#7733FF" stroke-opacity="0.09"/>
<line x1="96.5" y1="-25" x2="96.5" y2="730" stroke="#7733FF" stroke-opacity="0.09"/>
<line x1="112.5" y1="-25" x2="112.5" y2="730" stroke="#7733FF" stroke-opacity="0.09"/>
<line x1="128.5" y1="-25" x2="128.5" y2="730" stroke="#7733FF" stroke-opacity="0.09"/>
<line x1="144.5" y1="-25" x2="144.5" y2="730" stroke="#7733FF" stroke-opacity="0.09"/>
<line x1="160.5" y1="-25" x2="160.5" y2="730" stroke="#7733FF" stroke-opacity="0.09"/>
<line x1="176.5" y1="-25" x2="176.5" y2="730" stroke="#7733FF" stroke-opacity="0.09"/>
<line x1="192.5" y1="-25" x2="192.5" y2="730" stroke="#7733FF" stroke-opacity="0.09"/>
<line x1="208.5" y1="-25" x2="208.5" y2="730" stroke="#7733FF" stroke-opacity="0.09"/>
<line x1="224.5" y1="-25" x2="224.5" y2="730" stroke="#7733FF" stroke-opacity="0.09"/>
<line x1="240.5" y1="-25" x2="240.5" y2="730" stroke="#7733FF" stroke-opacity="0.09"/>
<line x1="256.5" y1="-25" x2="256.5" y2="730" stroke="#7733FF" stroke-opacity="0.09"/>
<line x1="272.5" y1="-25" x2="272.5" y2="730" stroke="#7733FF" stroke-opacity="0.09"/>
<line x1="288.5" y1="-25" x2="288.5" y2="730" stroke="#7733FF" stroke-opacity="0.09"/>
<line x1="304.5" y1="-25" x2="304.5" y2="730" stroke="#7733FF" stroke-opacity="0.09"/>
<line x1="320.5" y1="-25" x2="320.5" y2="730" stroke="#7733FF" stroke-opacity="0.09"/>
<line x1="336.5" y1="-25" x2="336.5" y2="730" stroke="#7733FF" stroke-opacity="0.09"/>
<line x1="352.5" y1="-25" x2="352.5" y2="730" stroke="#7733FF" stroke-opacity="0.09"/>
<line x1="368.5" y1="-25" x2="368.5" y2="730" stroke="#7733FF" stroke-opacity="0.09"/>
<line x1="384.5" y1="-25" x2="384.5" y2="730" stroke="#7733FF" stroke-opacity="0.09"/>
<line x1="400.5" y1="-25" x2="400.5" y2="730" stroke="#7733FF" stroke-opacity="0.09"/>
<line x1="416.5" y1="-25" x2="416.5" y2="730" stroke="#7733FF" stroke-opacity="0.09"/>
<line x1="-40" y1="15.5" x2="504" y2="15.5" stroke="#7733FF" stroke-opacity="0.09"/>
<line x1="-40" y1="31.5" x2="504" y2="31.5" stroke="#7733FF" stroke-opacity="0.09"/>
<line x1="-40" y1="47.5" x2="504" y2="47.5" stroke="#7733FF" stroke-opacity="0.09"/>
<line x1="-40" y1="63.5" x2="504" y2="63.5" stroke="#7733FF" stroke-opacity="0.09"/>
<line x1="-40" y1="79.5" x2="504" y2="79.5" stroke="#7733FF" stroke-opacity="0.09"/>
<line x1="-40" y1="95.5" x2="504" y2="95.5" stroke="#7733FF" stroke-opacity="0.09"/>
<line x1="-40" y1="111.5" x2="504" y2="111.5" stroke="#7733FF" stroke-opacity="0.09"/>
<line x1="-40" y1="127.5" x2="504" y2="127.5" stroke="#7733FF" stroke-opacity="0.09"/>
<line x1="-40" y1="143.5" x2="504" y2="143.5" stroke="#7733FF" stroke-opacity="0.09"/>
<line x1="-40" y1="159.5" x2="504" y2="159.5" stroke="#7733FF" stroke-opacity="0.09"/>
<line x1="-40" y1="175.5" x2="504" y2="175.5" stroke="#7733FF" stroke-opacity="0.09"/>
<line x1="-40" y1="191.5" x2="504" y2="191.5" stroke="#7733FF" stroke-opacity="0.09"/>
<line x1="-40" y1="207.5" x2="504" y2="207.5" stroke="#7733FF" stroke-opacity="0.09"/>
<line x1="-40" y1="223.5" x2="504" y2="223.5" stroke="#7733FF" stroke-opacity="0.09"/>
<line x1="-40" y1="239.5" x2="504" y2="239.5" stroke="#7733FF" stroke-opacity="0.09"/>
<line x1="-40" y1="255.5" x2="504" y2="255.5" stroke="#7733FF" stroke-opacity="0.09"/>
<line x1="-40" y1="271.5" x2="504" y2="271.5" stroke="#7733FF" stroke-opacity="0.09"/>
<line x1="-40" y1="287.5" x2="504" y2="287.5" stroke="#7733FF" stroke-opacity="0.09"/>
<line x1="-40" y1="303.5" x2="504" y2="303.5" stroke="#7733FF" stroke-opacity="0.09"/>
<line x1="-40" y1="319.5" x2="504" y2="319.5" stroke="#7733FF" stroke-opacity="0.09"/>
<line x1="-40" y1="335.5" x2="504" y2="335.5" stroke="#7733FF" stroke-opacity="0.09"/>
<line x1="-40" y1="351.5" x2="504" y2="351.5" stroke="#7733FF" stroke-opacity="0.09"/>
<line x1="-40" y1="367.5" x2="504" y2="367.5" stroke="#7733FF" stroke-opacity="0.09"/>
<line x1="-40" y1="383.5" x2="504" y2="383.5" stroke="#7733FF" stroke-opacity="0.09"/>
<line x1="-40" y1="399.5" x2="504" y2="399.5" stroke="#7733FF" stroke-opacity="0.09"/>
<line x1="-40" y1="415.5" x2="504" y2="415.5" stroke="#7733FF" stroke-opacity="0.09"/>
<line x1="-40" y1="431.5" x2="504" y2="431.5" stroke="#7733FF" stroke-opacity="0.09"/>
<line x1="-40" y1="447.5" x2="504" y2="447.5" stroke="#7733FF" stroke-opacity="0.09"/>
<line x1="-40" y1="463.5" x2="504" y2="463.5" stroke="#7733FF" stroke-opacity="0.09"/>
<line x1="-40" y1="479.5" x2="504" y2="479.5" stroke="#7733FF" stroke-opacity="0.09"/>
<line x1="-40" y1="495.5" x2="504" y2="495.5" stroke="#7733FF" stroke-opacity="0.09"/>
<line x1="-40" y1="511.5" x2="504" y2="511.5" stroke="#7733FF" stroke-opacity="0.09"/>
<line x1="-40" y1="527.5" x2="504" y2="527.5" stroke="#7733FF" stroke-opacity="0.09"/>
<line x1="-40" y1="543.5" x2="504" y2="543.5" stroke="#7733FF" stroke-opacity="0.09"/>
<line x1="-40" y1="559.5" x2="504" y2="559.5" stroke="#7733FF" stroke-opacity="0.09"/>
<line x1="-40" y1="575.5" x2="504" y2="575.5" stroke="#7733FF" stroke-opacity="0.09"/>
</svg>
